<mxfile host="Electron" modified="2024-05-12T13:51:14.216Z" agent="Mozilla/5.0 (Windows NT 10.0; Win64; x64) AppleWebKit/537.36 (KHTML, like Gecko) draw.io/24.2.5 Chrome/120.0.6099.109 Electron/28.1.0 Safari/537.36" etag="MuPxWP9Czkb2TiT0RZ8V" version="24.2.5" type="device">
  <diagram name="Page-1" id="fzWXbHrHMgCxOxB32kD4">
    <mxGraphModel dx="989" dy="577" grid="1" gridSize="10" guides="1" tooltips="1" connect="1" arrows="1" fold="1" page="1" pageScale="1" pageWidth="850" pageHeight="1100" math="0" shadow="0">
      <root>
        <mxCell id="0" />
        <mxCell id="1" parent="0" />
        <mxCell id="SyIyCM8Laf7hYzxyw3Sf-5" value="" style="group;labelBackgroundColor=none;sketch=1;curveFitting=1;jiggle=2;" vertex="1" connectable="0" parent="1">
          <mxGeometry x="150" y="300" width="120" height="140" as="geometry" />
        </mxCell>
        <mxCell id="SyIyCM8Laf7hYzxyw3Sf-3" value="" style="shape=image;verticalLabelPosition=bottom;labelBackgroundColor=none;verticalAlign=top;aspect=fixed;imageAspect=0;image=data:image/svg+xml,PHN2ZyB4bWxuczp4bGluaz0iaHR0cDovL3d3dy53My5vcmcvMTk5OS94bGluayIgeG1sbnM9Imh0dHA6Ly93d3cudzMub3JnLzIwMDAvc3ZnIiB4bWw6c3BhY2U9InByZXNlcnZlIiB2aWV3Qm94PSIwIDAgMzg5Ljk4MSAzODkuOTgxIiBpZD0iQ2FwYV8xIiB2ZXJzaW9uPSIxLjEiIHdpZHRoPSI4MDBweCIgaGVpZ2h0PSI4MDBweCIgZmlsbD0iIzAwMDAwMCI+JiN4YTs8Zz4mI3hhOwk8cGF0aCBkPSJNMTQ1LjQwNywyNDguOTg4bC0yLjc3NSwyNi4yMDljLTAuMjI0LDIuMTE1LDAuNDYsNC4yMjUsMS44ODMsNS44MDZjMS40MjIsMS41ODEsMy40NDksMi40ODMsNS41NzYsMi40ODNoNzkuMzAxJiMxMDsmIzk7JiM5O2MyLjEyNiwwLDQuMTUzLTAuOTAzLDUuNTc2LTIuNDgzYzEuNDIyLTEuNTgxLDIuMTA2LTMuNjkxLDEuODgzLTUuODA2bC0yLjc3NS0yNi4yMDloOTguNzc3YzE1LjM3NCwwLDI3Ljg4MS0xMi41MDcsMjcuODgxLTI3Ljg4MSYjMTA7JiM5OyYjOTtWMjcuODgxQzM2MC43MzMsMTIuNTA3LDM0OC4yMjUsMCwzMzIuODUyLDBINDAuNjNDMjUuMjU2LDAsMTIuNzQ5LDEyLjUwNywxMi43NDksMjcuODgxdjE5My4yMjYmIzEwOyYjOTsmIzk7YzAsMTUuMzc0LDEyLjUwNywyNy44ODEsMjcuODgxLDI3Ljg4MUgxNDUuNDA3eiBNMjIxLjA1NSwyNjguNDg3aC02Mi42MjlsMi4wNjQtMTkuNDk5aDU4LjVMMjIxLjA1NSwyNjguNDg3eiBNNDAuNjMsMTVoMjkyLjIyMiYjMTA7JiM5OyYjOTtjNy4xMDMsMCwxMi44ODEsNS43NzgsMTIuODgxLDEyLjg4MVYxOTcuOTlIMjcuNzQ5VjI3Ljg4MUMyNy43NDksMjAuNzc4LDMzLjUyNywxNSw0MC42MywxNXogTTI3Ljc0OSwyMjEuMTA3di04LjExN2gzMTcuOTgzJiMxMDsmIzk7JiM5O3Y4LjExN2MwLDcuMTAzLTUuNzc4LDEyLjg4MS0xMi44ODEsMTIuODgxSDQwLjYzQzMzLjUyNywyMzMuOTg4LDI3Ljc0OSwyMjguMjEsMjcuNzQ5LDIyMS4xMDd6Ii8+JiN4YTsJPHBhdGggZD0iTTMzMi42NDUsMzMzLjg3NmMxLjM2LTIuMjQsMS40NTMtNS4wMjcsMC4yNDQtNy4zNTJsLTE0LjgxMy0yOC40OTljLTEuMjkxLTIuNDgzLTMuODU2LTQuMDQxLTYuNjU1LTQuMDQxSDYyLjA2MSYjMTA7JiM5OyYjOTtjLTIuNzk4LDAtNS4zNjQsMS41NTgtNi42NTUsNC4wNDFsLTE0LjgxMywyOC40OTljLTEuMjA4LDIuMzI1LTEuMTE2LDUuMTEyLDAuMjQ0LDcuMzUyczMuNzkxLDMuNjA3LDYuNDExLDMuNjA3aDI3OC45ODYmIzEwOyYjOTsmIzk7QzMyOC44NTQsMzM3LjQ4NCwzMzEuMjg1LDMzNi4xMTYsMzMyLjY0NSwzMzMuODc2eiBNNTkuNTk5LDMyMi40ODRsNy4wMTYtMTMuNDk5aDI0MC4yNTFsNy4wMTcsMTMuNDk5SDU5LjU5OXoiLz4mI3hhOwk8cGF0aCBkPSJNMzQ1LjczMywzNTAuOTgyaC0xMmMtMTcuMzY4LDAtMzEuNDk5LDE0LjEzLTMxLjQ5OSwzMS40OTljMCw0LjE0MiwzLjM1OCw3LjUsNy41LDcuNWg1OS45OTdjNC4xNDIsMCw3LjUtMy4zNTgsNy41LTcuNSYjMTA7JiM5OyYjOTtDMzc3LjIzMiwzNjUuMTEzLDM2My4xMDIsMzUwLjk4MiwzNDUuNzMzLDM1MC45ODJ6IE0zMTkuMDQsMzc0Ljk4MWMyLjczNS01LjMzNyw4LjI5NS04Ljk5OSwxNC42OTMtOC45OTloMTImIzEwOyYjOTsmIzk7YzYuMzk4LDAsMTEuOTU4LDMuNjYyLDE0LjY5NCw4Ljk5OUgzMTkuMDR6Ii8+JiN4YTs8L2c+JiN4YTs8L3N2Zz4=;sketch=1;curveFitting=1;jiggle=2;" vertex="1" parent="SyIyCM8Laf7hYzxyw3Sf-5">
          <mxGeometry y="35" width="105" height="105" as="geometry" />
        </mxCell>
        <mxCell id="SyIyCM8Laf7hYzxyw3Sf-4" value="&lt;font style=&quot;font-size: 20px;&quot;&gt;Client&lt;/font&gt;" style="text;html=1;align=center;verticalAlign=middle;whiteSpace=wrap;rounded=0;labelBackgroundColor=none;sketch=1;curveFitting=1;jiggle=2;" vertex="1" parent="SyIyCM8Laf7hYzxyw3Sf-5">
          <mxGeometry x="20" width="60" height="26.25" as="geometry" />
        </mxCell>
        <mxCell id="SyIyCM8Laf7hYzxyw3Sf-6" value="" style="endArrow=classic;html=1;rounded=0;startArrow=blockThin;startFill=1;strokeWidth=1;exitX=1.03;exitY=0.393;exitDx=0;exitDy=0;exitPerimeter=0;entryX=-0.04;entryY=0.445;entryDx=0;entryDy=0;entryPerimeter=0;labelBackgroundColor=none;fontColor=default;sketch=1;curveFitting=1;jiggle=2;" edge="1" parent="1" source="SyIyCM8Laf7hYzxyw3Sf-3" target="SyIyCM8Laf7hYzxyw3Sf-8">
          <mxGeometry width="50" height="50" relative="1" as="geometry">
            <mxPoint x="180" y="380" as="sourcePoint" />
            <mxPoint x="380" y="380" as="targetPoint" />
          </mxGeometry>
        </mxCell>
        <mxCell id="SyIyCM8Laf7hYzxyw3Sf-16" value="Post processing request" style="edgeLabel;html=1;align=center;verticalAlign=middle;resizable=0;points=[];labelBackgroundColor=none;sketch=1;curveFitting=1;jiggle=2;" vertex="1" connectable="0" parent="SyIyCM8Laf7hYzxyw3Sf-6">
          <mxGeometry x="-0.2397" relative="1" as="geometry">
            <mxPoint x="18" y="7" as="offset" />
          </mxGeometry>
        </mxCell>
        <mxCell id="SyIyCM8Laf7hYzxyw3Sf-14" value="" style="group;perimeterSpacing=3;strokeWidth=0;fontSize=9;labelBackgroundColor=none;sketch=1;curveFitting=1;jiggle=2;" vertex="1" connectable="0" parent="1">
          <mxGeometry x="400" y="290" width="770" height="830" as="geometry" />
        </mxCell>
        <mxCell id="SyIyCM8Laf7hYzxyw3Sf-8" value="" style="shape=image;verticalLabelPosition=bottom;labelBackgroundColor=none;verticalAlign=top;aspect=fixed;imageAspect=0;image=data:image/webp,UklGRmQNAABXRUJQVlA4TFgNAAAvm8F/ED8QEWraRmJzx6N8HX/8wOzlPDkI2rZNzB/2tp9CRExAuzmCWjyESpp4sCX0bXtF57b2Jq4mgcEtjtM6T+vslhtpHe+0zrSTQP/fAcGr5334oiei/7Bo24ra7JdZJCRpBUEz/NLZtu1JNIGKtlTaUn20bKRlNk3LRlpmk60S9P9veJ/7uR61jug/LNi2qjY3aRmjoZf7PFwJ6bfBju3jH7d3r7X7EOXr3c/T3RXDObKdHy+uZfw53bFsb/neMK31pD3L85bjT7d0vmHXMrR1UzuxKM8idrafnXD8XqOW4tkFiN+rtC49uUDxO6Lk2gWMM0vHUeWCRrlGpjK4ccHj3BJx+OnWnrjx2oHEPolkcwcTBYNUWw3JIFLF6n1zYLHOI48+yOLRAcaBYk8OMs7VmjnQuGBRIyDdr9Ij8kHlEfqgTsMRdgZ9ucEfyNRvNdP67lGiU6uzcvtHTeNw5Tr6tWrMg+scm8Ycde6L2VAi79q3EL0vaQWul1ain0xHS36rluj3mTiBGEj0+5WRhgqu03rUaPXTE+1EIpLolhlZzXdY7n0u21TG8HMpbzrdn+Lc3zdZlmihBpk2H5+2h39eFVunwokXdzpzGJJxr7ljjySvn92esoOFAdtzDGqqHENCTuQpIvhaynz/eDos0kEFnjluwvHTk11T3vQfooUE9KbDFU013Hnrduk1GaPczvj2TNmuh2JdJ2SqJSm0D7f1NqrZJZD3BQXuRTDPNAlO8p7Zz2d5aZZ//G2WpmwUQovwfI6XejmlutshsyhbhTQGPRO4HNUff1vY1ANxv3mGlyZqFjcLGrcpWwSMAT2HWEOQVDZtBDkr1BDsvz38BHilygWzEDRMEu2GKngUQD5E2Ia0GlWCtikgugE9T4s4dZ1plE3IEOZHfstE1NtFZW8U4ppyfdy3NNrcDWoF0hmUVKJN+WFbH1tm3LlOJSOe7lGRSIfVPK5CoU6n7MrY7u8POsNaKd2UQiuRg0exXPCQf6HHgtqH0ErksB9stpAAnGN2drPV7KPyxiimF2gEeP4J4u+YaeSwoL2akh6vuWFqWW0lq6Q3gwwXHq0ZMdTZCdFWJUdTYHE8BTs/UrkwV8mj7ncM/pRhp2MW1gix0UF6J1vspRQqly2lupygkkJ/HdJZjwHOUkhbOrmaDYbnEpzzc07Nu2x7btGLuftxOuk4ddT+vxwZ2YSp6DEarRCCOUIkpcLiyhqCEpkJOSXtoenC1wycae4eYz5VY9KO5FSYluaA+RU0IYd6vjBdeMVTgxIgyTNboHqOJTWcngIrE57JAgUhCyMpW6IUdc/jce4RS4ZLsjoMX3zEw6oVG2DuXyB2g6vAM3EJ73mPRdxU2ohFyQ++Y3cOolyptB0Byt5gTU1fzaGYD//yoyMgYp+4Jg+9euDc2nZF2BQX2o/w1dj5zja8rghX2mHNEHn1mXPrOITGvJhrtoFXHzG3Lkw7fr4wR7z6LwYDJObWSRg95kxl3MU9FuCyxXSE7pA55sAZahE2B8kxt94M5QNzxMo7H8HYrTl4b0MpuWHOQfORkYtaN3P4oWQTFribIMi7YJbUmdIOp+EccQmpS1TcoGYzbISTrZja+pDDK2ZwpWlwIY1czL+5YjykoSPn1lYEpg9MwUPEcY55z9AIYS5+52Sy4Y9rbkRxWA0nndk65I+HX/XHalGH8t2Svu9g7s4NFj+s7i/ugR+Or5UOQAn/tdI7UYgge/XlH8MYccZW+/KP2ZlvzlfhBCAMoUWWmq/z6wcgYD3vnrGDu1e6mXp77ZFMc852r79XaqpYcTZ4zvTKhEvWCseZXplQsTboZ2hPAM4UJx2iblc+oWKeASYXA8li/BXAmbRLQ6X1yJp4ryQTAHMKyJ6AM5HYiqRFU2LrXir/iUys93LiGyZEk81YRXh1qzIPU/4Uzxijy52br0RsRTIK5gGG1ftXFUn9G176Rm6CwUyu8Dm2czzeYgkN8QwQXcXaiVvp3ls3A7H+lxhRg9VOrs7x3wdZJJcGUXbDEpQzCE6DVJdDTFMIeKh9Xj8Se4wJpl7WEyuoLMyUCFMVcyJ3mX/BIRkAociudwWYi8E6hjIREKibUujB44dn7MwSqg47cfOwt0a4vLOoyntEIBw8nO85HIMqm0OSVO6wqi3l8cu4LlQkbAxZOeTLwRgYgeDOYcdT2nI5iIkru0dIoTYYitDCBbKZs1B5SCEesozsEhI90hkwJGfHyJqQvL2RpYvlbIMsw/K2DCEulLtXzbUctoXK24vqcJN6pRPfI+BwOcRerSp7T7nREp4QEDGqNhrBtLPYynuEWtWglGPwEk4M+C7FN3Zp8WBDQzdFSGKnmW6L4TFEIXh1TktCi0kHDCuDiB/jJR3cNdEWmJ5AxNtfrxnzmlYABS4xRcDvRnPrCOcY4LtGLEiS+hqoakaCr6eqPavSVRch/wgWn3pnpasRMt3ckxIGhsshR9hLrFBgTIOFEoaS06YA8Q81mAIMtVbEv6HyPTIaF1VpQ1WCJPXOWIOGeqPCXbov6p0WCDZOqCvBSlpMR0AwG4T8bmPLp6agGDYatE5pWdvyOVAwWYcrJQ5b1pcA4ac6jAGmerCFv4OyaKxDA6GELm2qtrY3UDCwOpT+cCeEztp2c2xMWKL1VtqWs/KyL7RYeFsdbD4oIIaPg62aDaQTGAWStbhA0Xu2/KAK2Mgk0aIHMqsUO5u0tqlcrwGJjS6WQLq0IUGhwKKBwiTkejvLkAooTBstMiQZmWIzhcqMaAQHmmVAQf5gGfyGsbYLPWZo1yiLrjyvAz2uTMQrLYlMAXakx4X3vdqwozMUsRI9+nSUZ6g1RjlQ6oETbohrclwWF5DrRHpU/E54g5HBWgiCWD1KZDc320MDNoAzStg4HBKJQSfGKUaAokc7pamEqG58KjRZiDBv5ukqHbAgWwMU61cmhmr4PTqHgKiYB01FGiYfe/5w9MCg65imjqFDBrYMUtmlacdQoknPyKRLU5rTLcSpJh1PxchbUaxJw3vffoQ8nIE9RGMZnsIhElqEQ8w1291pHVNP4aQjDYtwlo+bq1cHcz78o89M+sXg741pvxh+ZaNv1kT+SdNnvSuv7cNJFA61zCKfPfLSXiQyHDUymnolTSUy+LbV7L4HtO//jkWUutQiDptdypgyUEM3MDwjTSKcLk5E3kxkhNK7tZlWJ+hWmZCxVpnMSMtlM89IE+dxIyN8ekpKZ0wvQsNCLhmMHhcQZUL/4RRG9qHIGGDpmyKCHAvKWs0uOG9DMifJWiQmtC0kIGrdJ7PczFpKx3jbK0tu1lI6xtvFWTZtsUpmm8UQBUeYUanJjXc+08WZbesLBUYz/DLbDhtLWvfyFX2sdBt5CFCYn3lgtv8C9DmREF5TPcYA/Zp2xHe/HzN4hvj4UI8pJi42KoT2klS6vxwyrLv9+Wxm+zIyeEKQKtswLVowJMI/myKNU4SPXvMChUVhdxNeoJQlZGSuBKEJ251wJWw0I2RkroRgI2Rkruy0lgv7B/B1E5J0xbyiKxVsNGNe0TXKJH/CvKLrrchpp+1lnhwiu2Se1aSY8yHzrBYl1GTMs9K2eKzZZBW2C69mJ0u8W+6DuJch75Z7K+4zyXvOk5b7Ct5z7sX9WXm3dbfqduC058xTsmU9Y6fa8oxrCxH4uqAJtxZiwHcZ3DfXfvwAXxd06Li2qcSgudP5IZpS133NOeFFT88zzgkn/c7/hHMr5KbD2ktPK4RyC6SwOGLZX4Rp3jFeGTE+sWRieo4rIy5RuQTMuM4+2cZPpNv4Ib6uc4sxn6TYE6qVhPni5YS7U8zWbNmPnzrjyzxgU7ctEZXebxeTu2mjiEjAJZkvhNY4p+lTAVPFWi/VCt0LqMh8kZ3GaTKHAmqnOLIAOTEnVsV4a8ViBW8HMQ1SEyIm3uRyMmutXOVj7SCjYbb8aJY1x30Yzlqd7skCtngmi/hCO66If5SGsdpVIJdTtvrqsP/bckhiBVvhqsLKKdqs0w+OtQOH2HJfhZwq4s7DWL3z3zjtnaU+5X7498OI33CE3H+sVfv0PzZRGtw3ylSyoVFH0slLuSodvo37BBGzQkSxY/I/PoSIWYQwhSR3nmowqoH75SoJntdgVAA3ZXUSxrpSlBNL5zRSPO8KUYsszVBJEEgPUYHc/1dGLvhsCcmZVZoatXl5ZbTQKiCdYq9KArWqKlOnZat1JiKn1gJq1OIZmUrA1lbmKpkQuFW8EUcVuH6To+ylkfUnIc//TzUnz78oqclL/c068ryVVs5cq06fMTcBF87pS31TuOEP79nBO616QNHkyvUAt9HQjq17weeV02zu+oFb/3C5cvqUPz/Es+tYFPexKL+Q60ZPT94KiUf3WPjX6irFSkgzxS4g3SuWQspqvdct6A7eL686409sFgLG8YnO2MV9H2itUWDKnd5IIE0VG/ZMH+uoZ/q/y74Zm/iKGbv9Fxb+++Lf6ORDPDU/ZR+LctOqKPDd40Vw7w1W9Mx7gw0gZYpFBjK+1Vqtm4VQkZ34Yi2gI+8jsCptAb2v0sS/xr7w36I/GQ==;sketch=1;curveFitting=1;jiggle=2;" vertex="1" parent="SyIyCM8Laf7hYzxyw3Sf-14">
          <mxGeometry x="27.67527675276752" y="37.5" width="89.07749077490773" height="110.70110701107008" as="geometry" />
        </mxCell>
        <mxCell id="SyIyCM8Laf7hYzxyw3Sf-13" value="&lt;div style=&quot;text-align: center;&quot;&gt;&lt;span style=&quot;background-color: initial;&quot;&gt;&lt;font style=&quot;font-size: 14px;&quot;&gt;Foresight server&lt;/font&gt;&lt;/span&gt;&lt;/div&gt;" style="text;whiteSpace=wrap;html=1;labelBackgroundColor=none;sketch=1;curveFitting=1;jiggle=2;" vertex="1" parent="SyIyCM8Laf7hYzxyw3Sf-14">
          <mxGeometry x="22.5" y="7.5" width="115" height="22.5" as="geometry" />
        </mxCell>
        <mxCell id="SyIyCM8Laf7hYzxyw3Sf-25" value="" style="group;labelBackgroundColor=none;sketch=1;curveFitting=1;jiggle=2;" vertex="1" connectable="0" parent="SyIyCM8Laf7hYzxyw3Sf-14">
          <mxGeometry x="300" y="236" width="120" height="117.20999999999998" as="geometry" />
        </mxCell>
        <mxCell id="SyIyCM8Laf7hYzxyw3Sf-22" value="" style="shape=image;verticalLabelPosition=bottom;labelBackgroundColor=none;verticalAlign=top;aspect=fixed;imageAspect=0;image=data:image/svg+xml,PHN2ZyB4bWxuczp4bGluaz0iaHR0cDovL3d3dy53My5vcmcvMTk5OS94bGluayIgeG1sbnM9Imh0dHA6Ly93d3cudzMub3JnLzIwMDAvc3ZnIiB4bWw6c3BhY2U9InByZXNlcnZlIiB2aWV3Qm94PSIwIDAgNTUgNTUiIGlkPSJDYXBhXzEiIHZlcnNpb249IjEuMSIgd2lkdGg9IjgwMHB4IiBoZWlnaHQ9IjgwMHB4IiBmaWxsPSIjMDAwMDAwIj4mI3hhOzxwYXRoIGQ9Ik01Mi4zNTQsOC41MUM1MS4xOTYsNC4yMiw0Mi41NzcsMCwyNy41LDBDMTIuNDIzLDAsMy44MDMsNC4yMiwyLjY0Niw4LjUxQzIuNTYyLDguNjU3LDIuNSw4LjgxOCwyLjUsOXYwLjVWMjF2MC41VjIydjExJiMxMDsmIzk7djAuNVYzNHYxMmMwLDAuMTYyLDAuMDQzLDAuMzE1LDAuMTE3LDAuNDUxQzMuNzk4LDUxLjM0NiwxNC4zNjQsNTUsMjcuNSw1NWMxMy4xMDYsMCwyMy42NTUtMy42MzksMjQuODc1LTguNTE2JiMxMDsmIzk7QzUyLjQ1NSw0Ni4zNDEsNTIuNSw0Ni4xNzYsNTIuNSw0NlYzNHYtMC41VjMzVjIydi0wLjVWMjFWOS41VjlDNTIuNSw4LjgxOCw1Mi40MzgsOC42NTcsNTIuMzU0LDguNTF6IE01MC40MjEsMzMuOTg1JiMxMDsmIzk7Yy0wLjAyOCwwLjEyMS0wLjA2NywwLjI0MS0wLjExNiwwLjM2M2MtMC4wNCwwLjA5OS0wLjA4OSwwLjE5OC0wLjE0MywwLjI5N2MtMC4wNjcsMC4xMjMtMC4xNDIsMC4yNDYtMC4yMzEsMC4zNjkmIzEwOyYjOTtjLTAuMDY2LDAuMDkzLTAuMTQxLDAuMTg1LTAuMjE5LDAuMjc3Yy0wLjExMSwwLjEzMS0wLjIyOSwwLjI2Mi0wLjM2MywwLjM5MmMtMC4wODEsMC4wNzktMC4xNywwLjE1Ny0wLjI2LDAuMjM2JiMxMDsmIzk7Yy0wLjE2NCwwLjE0My0wLjMzNSwwLjI4NS0wLjUyNiwwLjQyNmMtMC4wODIsMC4wNjEtMC4xNywwLjEyLTAuMjU3LDAuMThjLTAuMjI2LDAuMTU2LTAuNDYyLDAuMzExLTAuNzIxLDAuNDYzJiMxMDsmIzk7Yy0wLjA2OCwwLjA0MS0wLjE0MSwwLjA4LTAuMjEyLDAuMTJjLTAuMjk4LDAuMTY4LTAuNjA5LDAuMzM1LTAuOTQ1LDAuNDk3Yy0wLjA0MywwLjAyMS0wLjA4OCwwLjA0MS0wLjEzMiwwLjA2MSYjMTA7JiM5O2MtMC4zNzUsMC4xNzctMC43NjcsMC4zNTEtMS4xODYsMC41MTljLTAuMDEyLDAuMDA1LTAuMDI0LDAuMDA5LTAuMDM2LDAuMDE0Yy0yLjI3MSwwLjkwNy01LjE3NiwxLjY3LTguNTYxLDIuMTcmIzEwOyYjOTtjLTAuMDE3LDAuMDAyLTAuMDM0LDAuMDA0LTAuMDUxLDAuMDA3Yy0wLjY1OCwwLjA5Ny0xLjMzMywwLjE4My0yLjAyNiwwLjI1OWMtMC4xMTMsMC4wMTItMC4yMzIsMC4wMi0wLjM0NiwwLjAzMiYjMTA7JiM5O2MtMC42MDUsMC4wNjMtMS4yMTcsMC4xMjEtMS44NDcsMC4xNjdjLTAuMjg4LDAuMDIxLTAuNTksMC4wMzEtMC44ODMsMC4wNDljLTAuNDc0LDAuMDI4LTAuOTQzLDAuMDU5LTEuNDI5LDAuMDc2JiMxMDsmIzk7QzI5LjEzNyw0MC45ODQsMjguMzI3LDQxLDI3LjUsNDFzLTEuNjM3LTAuMDE2LTIuNDMyLTAuMDQ0Yy0wLjQ4Ni0wLjAxNy0wLjk1NS0wLjA0OS0xLjQyOS0wLjA3NiYjMTA7JiM5O2MtMC4yOTMtMC4wMTctMC41OTUtMC4wMjgtMC44ODMtMC4wNDljLTAuNjMtMC4wNDYtMS4yNDItMC4xMDQtMS44NDctMC4xNjdjLTAuMTE0LTAuMDEyLTAuMjMzLTAuMDItMC4zNDYtMC4wMzImIzEwOyYjOTtjLTAuNjkzLTAuMDc2LTEuMzY4LTAuMTYzLTIuMDI2LTAuMjU5Yy0wLjAxNy0wLjAwMi0wLjAzNC0wLjAwNC0wLjA1MS0wLjAwN2MtMy4zODUtMC41LTYuMjktMS4yNjMtOC41NjEtMi4xNyYjMTA7JiM5O2MtMC4wMTItMC4wMDQtMC4wMjQtMC4wMDktMC4wMzYtMC4wMTRjLTAuNDE5LTAuMTY4LTAuODEyLTAuMzQyLTEuMTg2LTAuNTE5Yy0wLjA0My0wLjAyMS0wLjA4OS0wLjA0MS0wLjEzMi0wLjA2MSYjMTA7JiM5O2MtMC4zMzYtMC4xNjItMC42NDctMC4zMjgtMC45NDUtMC40OTdjLTAuMDctMC4wNC0wLjE0NC0wLjA3OS0wLjIxMi0wLjEyYy0wLjI1OS0wLjE1Mi0wLjQ5NS0wLjMwNy0wLjcyMS0wLjQ2MyYjMTA7JiM5O2MtMC4wODYtMC4wNi0wLjE3NS0wLjExOS0wLjI1Ny0wLjE4Yy0wLjE5MS0wLjE0MS0wLjM2Mi0wLjI4My0wLjUyNi0wLjQyNmMtMC4wODktMC4wNzgtMC4xNzktMC4xNTYtMC4yNi0wLjIzNiYjMTA7JiM5O2MtMC4xMzQtMC4xMy0wLjI1Mi0wLjI2LTAuMzYzLTAuMzkyYy0wLjA3OC0wLjA5Mi0wLjE1My0wLjE4NC0wLjIxOS0wLjI3N2MtMC4wODgtMC4xMjMtMC4xNjMtMC4yNDYtMC4yMzEtMC4zNjkmIzEwOyYjOTtjLTAuMDU0LTAuMDk5LTAuMTAyLTAuMTk4LTAuMTQzLTAuMjk3Yy0wLjA0OS0wLjEyMS0wLjA4OC0wLjI0Mi0wLjExNi0wLjM2M0M0LjU0MSwzMy44MjMsNC41LDMzLjY2MSw0LjUsMzMuNSYjMTA7JiM5O2MwLTAuMTEzLDAuMDEzLTAuMjI2LDAuMDMxLTAuMzM4YzAuMDI1LTAuMTUxLDAuMDExLTAuMzAyLTAuMDMxLTAuNDQ1di03LjQyNGMwLjAyOCwwLjAyNiwwLjA2MywwLjA1MSwwLjA5MiwwLjA3NyYjMTA7JiM5O2MwLjIxOCwwLjE5MiwwLjQ0LDAuMzgzLDAuNjksMC41NjdDOS4wNDksMjguNzg2LDE2LjU4MiwzMSwyNy41LDMxYzEwLjg3MiwwLDE4LjM4Ni0yLjE5NiwyMi4xNjktNS4wMjgmIzEwOyYjOTtjMC4zMDItMC4yMiwwLjU3NC0wLjQ0NywwLjgzLTAuNjc4bDAuMDAxLTAuMDAxdjcuNDI0Yy0wLjA0MiwwLjE0My0wLjA1NiwwLjI5NC0wLjAzMSwwLjQ0NWMwLjAxOSwwLjExMiwwLjAzMSwwLjIyNSwwLjAzMSwwLjMzOCYjMTA7JiM5O0M1MC41LDMzLjY2MSw1MC40NTksMzMuODIzLDUwLjQyMSwzMy45ODV6IE01MC41LDEzLjI5M3Y3LjQyNGMtMC4wNDIsMC4xNDMtMC4wNTYsMC4yOTQtMC4wMzEsMC40NDUmIzEwOyYjOTtjMC4wMTksMC4xMTIsMC4wMzEsMC4yMjUsMC4wMzEsMC4zMzhjMCwwLjE2MS0wLjA0MSwwLjMyMy0wLjA3OSwwLjQ4NWMtMC4wMjgsMC4xMjEtMC4wNjcsMC4yNDEtMC4xMTYsMC4zNjMmIzEwOyYjOTtjLTAuMDQsMC4wOTktMC4wODksMC4xOTgtMC4xNDMsMC4yOTdjLTAuMDY3LDAuMTIzLTAuMTQyLDAuMjQ2LTAuMjMxLDAuMzY5Yy0wLjA2NiwwLjA5My0wLjE0MSwwLjE4NS0wLjIxOSwwLjI3NyYjMTA7JiM5O2MtMC4xMTEsMC4xMzEtMC4yMjksMC4yNjItMC4zNjMsMC4zOTJjLTAuMDgxLDAuMDc5LTAuMTcsMC4xNTctMC4yNiwwLjIzNmMtMC4xNjQsMC4xNDMtMC4zMzUsMC4yODUtMC41MjYsMC40MjYmIzEwOyYjOTtjLTAuMDgyLDAuMDYxLTAuMTcsMC4xMi0wLjI1NywwLjE4Yy0wLjIyNiwwLjE1Ni0wLjQ2MiwwLjMxMS0wLjcyMSwwLjQ2M2MtMC4wNjgsMC4wNDEtMC4xNDEsMC4wOC0wLjIxMiwwLjEyJiMxMDsmIzk7Yy0wLjI5OCwwLjE2OC0wLjYwOSwwLjMzNS0wLjk0NSwwLjQ5N2MtMC4wNDMsMC4wMjEtMC4wODgsMC4wNDEtMC4xMzIsMC4wNjFjLTAuMzc1LDAuMTc3LTAuNzY3LDAuMzUxLTEuMTg2LDAuNTE5JiMxMDsmIzk7Yy0wLjAxMiwwLjAwNS0wLjAyNCwwLjAwOS0wLjAzNiwwLjAxNGMtMi4yNzEsMC45MDctNS4xNzYsMS42Ny04LjU2MSwyLjE3Yy0wLjAxNywwLjAwMi0wLjAzNCwwLjAwNC0wLjA1MSwwLjAwNyYjMTA7JiM5O2MtMC42NTgsMC4wOTctMS4zMzMsMC4xODMtMi4wMjYsMC4yNTljLTAuMTEzLDAuMDEyLTAuMjMyLDAuMDItMC4zNDYsMC4wMzJjLTAuNjA1LDAuMDYzLTEuMjE3LDAuMTIxLTEuODQ3LDAuMTY3JiMxMDsmIzk7Yy0wLjI4OCwwLjAyMS0wLjU5LDAuMDMxLTAuODgzLDAuMDQ5Yy0wLjQ3NCwwLjAyOC0wLjk0MywwLjA1OS0xLjQyOSwwLjA3NkMyOS4xMzcsMjguOTg0LDI4LjMyNywyOSwyNy41LDI5JiMxMDsmIzk7cy0xLjYzNy0wLjAxNi0yLjQzMi0wLjA0NGMtMC40ODYtMC4wMTctMC45NTUtMC4wNDktMS40MjktMC4wNzZjLTAuMjkzLTAuMDE3LTAuNTk1LTAuMDI4LTAuODgzLTAuMDQ5JiMxMDsmIzk7Yy0wLjYzLTAuMDQ2LTEuMjQyLTAuMTA0LTEuODQ3LTAuMTY3Yy0wLjExNC0wLjAxMi0wLjIzMy0wLjAyLTAuMzQ2LTAuMDMyYy0wLjY5My0wLjA3Ni0xLjM2OC0wLjE2My0yLjAyNi0wLjI1OSYjMTA7JiM5O2MtMC4wMTctMC4wMDItMC4wMzQtMC4wMDQtMC4wNTEtMC4wMDdjLTMuMzg1LTAuNS02LjI5LTEuMjYzLTguNTYxLTIuMTdjLTAuMDEyLTAuMDA0LTAuMDI0LTAuMDA5LTAuMDM2LTAuMDE0JiMxMDsmIzk7Yy0wLjQxOS0wLjE2OC0wLjgxMi0wLjM0Mi0xLjE4Ni0wLjUxOWMtMC4wNDMtMC4wMjEtMC4wODktMC4wNDEtMC4xMzItMC4wNjFjLTAuMzM2LTAuMTYyLTAuNjQ3LTAuMzI4LTAuOTQ1LTAuNDk3JiMxMDsmIzk7Yy0wLjA3LTAuMDQtMC4xNDQtMC4wNzktMC4yMTItMC4xMmMtMC4yNTktMC4xNTItMC40OTUtMC4zMDctMC43MjEtMC40NjNjLTAuMDg2LTAuMDYtMC4xNzUtMC4xMTktMC4yNTctMC4xOCYjMTA7JiM5O2MtMC4xOTEtMC4xNDEtMC4zNjItMC4yODMtMC41MjYtMC40MjZjLTAuMDg5LTAuMDc4LTAuMTc5LTAuMTU2LTAuMjYtMC4yMzZjLTAuMTM0LTAuMTMtMC4yNTItMC4yNi0wLjM2My0wLjM5MiYjMTA7JiM5O2MtMC4wNzgtMC4wOTItMC4xNTMtMC4xODQtMC4yMTktMC4yNzdjLTAuMDg4LTAuMTIzLTAuMTYzLTAuMjQ2LTAuMjMxLTAuMzY5Yy0wLjA1NC0wLjA5OS0wLjEwMi0wLjE5OC0wLjE0My0wLjI5NyYjMTA7JiM5O2MtMC4wNDktMC4xMjEtMC4wODgtMC4yNDItMC4xMTYtMC4zNjNDNC41NDEsMjEuODIzLDQuNSwyMS42NjEsNC41LDIxLjVjMC0wLjExMywwLjAxMy0wLjIyNiwwLjAzMS0wLjMzOCYjMTA7JiM5O2MwLjAyNS0wLjE1MSwwLjAxMS0wLjMwMi0wLjAzMS0wLjQ0NXYtNy40MjRjMC4xMiwwLjEwOSwwLjI1NywwLjIxNiwwLjM4NywwLjMyNGMwLjA3MiwwLjA2LDAuMTM5LDAuMTIsMC4yMTUsMC4xOCYjMTA7JiM5O2MwLjMsMC4yMzYsMC42MjQsMC40NjksMC45NzUsMC42OTZjMC4wNzMsMC4wNDcsMC4xNTUsMC4wOTMsMC4yMzEsMC4xNGMwLjI5NCwwLjE4MywwLjYwNSwwLjM2MiwwLjkzMiwwLjUzOCYjMTA7JiM5O2MwLjEyMSwwLjA2NSwwLjI0MiwwLjEyOSwwLjM2NywwLjE5M2MwLjM2NSwwLjE4NiwwLjc0OCwwLjM2NywxLjE1MSwwLjU0MmMwLjA2NiwwLjAyOSwwLjEyNiwwLjA1OSwwLjE5MywwLjA4NyYjMTA7JiM5O2MwLjQ2OSwwLjE5OSwwLjk2NywwLjM4OSwxLjQ4NSwwLjU3M2MwLjE0MywwLjA1MSwwLjI5MywwLjA5OSwwLjQ0LDAuMTQ5YzAuNDEyLDAuMTM5LDAuODM4LDAuMjcyLDEuMjc5LDAuNDAxJiMxMDsmIzk7YzAuMTU5LDAuMDQ2LDAuMzE1LDAuMDk0LDAuNDc4LDAuMTM4YzAuNTg1LDAuMTYyLDEuMTg5LDAuMzE2LDEuODIzLDAuNDU4YzAuMDg3LDAuMDIsMC4xODEsMC4wMzYsMC4yNjksMC4wNTUmIzEwOyYjOTtjMC41NTksMC4xMjIsMS4xMzksMC4yMzUsMS43MzUsMC4zNDFjMC4yMDIsMC4wMzYsMC40MDcsMC4wNywwLjYxMywwLjEwNGMwLjU2NywwLjA5MywxLjE1MSwwLjE3OCwxLjc1LDAuMjU2JiMxMDsmIzk7YzAuMTU0LDAuMDIsMC4zMDEsMC4wNDMsMC40NTcsMC4wNjJjMC43NDQsMC4wOSwxLjUxNCwwLjE2NywyLjMwNSwwLjIzM2MwLjE5NSwwLjAxNiwwLjM5OCwwLjAyOCwwLjU5NiwwLjA0MiYjMTA7JiM5O2MwLjYzMywwLjA0NiwxLjI4LDAuMDg0LDEuOTQyLDAuMTE0YzAuMjQxLDAuMDExLDAuNDgxLDAuMDIyLDAuNzI3LDAuMDMxQzI1LjcxMiwxOC45NzksMjYuNTksMTksMjcuNSwxOXMxLjc4OC0wLjAyMSwyLjY1LTAuMDUmIzEwOyYjOTtjMC4yNDUtMC4wMDksMC40ODUtMC4wMiwwLjcyNy0wLjAzMWMwLjY2Mi0wLjAzLDEuMzA5LTAuMDY4LDEuOTQyLTAuMTE0YzAuMTk4LTAuMDE1LDAuNC0wLjAyNiwwLjU5Ni0wLjA0MiYjMTA7JiM5O2MwLjc5MS0wLjA2NSwxLjU2MS0wLjE0MywyLjMwNS0wLjIzM2MwLjE1Ni0wLjAxOSwwLjMwMy0wLjA0MiwwLjQ1Ny0wLjA2MmMwLjU5OS0wLjA3OCwxLjE4Mi0wLjE2MywxLjc1LTAuMjU2JiMxMDsmIzk7YzAuMjA2LTAuMDM0LDAuNDExLTAuMDY4LDAuNjEzLTAuMTA0YzAuNTk2LTAuMTA2LDEuMTc2LTAuMjE5LDEuNzM1LTAuMzQxYzAuMDg4LTAuMDE5LDAuMTgyLTAuMDM2LDAuMjY5LTAuMDU1JiMxMDsmIzk7YzAuNjM0LTAuMTQyLDEuMjM4LTAuMjk3LDEuODIzLTAuNDU4YzAuMTYzLTAuMDQ1LDAuMzE5LTAuMDkyLDAuNDc4LTAuMTM4YzAuNDQxLTAuMTI5LDAuODY3LTAuMjYyLDEuMjc5LTAuNDAxJiMxMDsmIzk7YzAuMTQ3LTAuMDUsMC4yOTctMC4wOTgsMC40NC0wLjE0OWMwLjUxOC0wLjE4NCwxLjAxNy0wLjM3NCwxLjQ4NS0wLjU3M2MwLjA2Ny0wLjAyOCwwLjEyNy0wLjA1OCwwLjE5My0wLjA4NyYjMTA7JiM5O2MwLjQwMy0wLjE3NiwwLjc4Ni0wLjM1NiwxLjE1MS0wLjU0MmMwLjEyNS0wLjA2NCwwLjI0Ny0wLjEyOCwwLjM2Ny0wLjE5M2MwLjMyNy0wLjE3NSwwLjYzOC0wLjM1NCwwLjkzMi0wLjUzOCYjMTA7JiM5O2MwLjA3Ni0wLjA0NywwLjE1OC0wLjA5MywwLjIzMS0wLjE0YzAuMzUxLTAuMjI3LDAuNjc1LTAuNDU5LDAuOTc1LTAuNjk2YzAuMDc1LTAuMDYsMC4xNDItMC4xMiwwLjIxNS0wLjE4JiMxMDsmIzk7QzUwLjI0MywxMy41MDksNTAuMzgsMTMuNDAyLDUwLjUsMTMuMjkzeiBNMjcuNSwyYzEzLjU1NSwwLDIzLDMuOTUyLDIzLDcuNXMtOS40NDUsNy41LTIzLDcuNXMtMjMtMy45NTItMjMtNy41UzEzLjk0NSwyLDI3LjUsMnomIzEwOyYjOTsgTTUwLjUsNDUuNzAzYy0wLjAxNCwwLjA0NC0wLjAyNCwwLjA4OS0wLjAzMiwwLjEzNUM0OS45MDEsNDkuMjk3LDQwLjUzNiw1MywyNy41LDUzUzUuMDk5LDQ5LjI5Nyw0LjUzMiw0NS44MzgmIzEwOyYjOTtjLTAuMDA4LTAuMDQ1LTAuMDE5LTAuMDg5LTAuMDMyLTAuMTMxdi04LjQxNGMwLjAyOCwwLjAyNiwwLjA2MywwLjA1MSwwLjA5MiwwLjA3N2MwLjIxOCwwLjE5MiwwLjQ0LDAuMzgzLDAuNjksMC41NjcmIzEwOyYjOTtDOS4wNDksNDAuNzg2LDE2LjU4Miw0MywyNy41LDQzYzEwLjg3MiwwLDE4LjM4Ni0yLjE5NiwyMi4xNjktNS4wMjhjMC4zMDItMC4yMiwwLjU3NC0wLjQ0NywwLjgzLTAuNjc4bDAuMDAxLTAuMDAxVjQ1LjcwM3oiLz4mI3hhOzwvc3ZnPg==;sketch=1;curveFitting=1;jiggle=2;" vertex="1" parent="SyIyCM8Laf7hYzxyw3Sf-25">
          <mxGeometry x="16.389999999999986" y="30" width="87.21" height="87.21" as="geometry" />
        </mxCell>
        <mxCell id="SyIyCM8Laf7hYzxyw3Sf-24" value="&lt;div style=&quot;text-align: center;&quot;&gt;&lt;span style=&quot;background-color: initial; font-size: 13px;&quot;&gt;Historian database&lt;/span&gt;&lt;/div&gt;" style="text;whiteSpace=wrap;html=1;labelBackgroundColor=none;sketch=1;curveFitting=1;jiggle=2;" vertex="1" parent="SyIyCM8Laf7hYzxyw3Sf-25">
          <mxGeometry width="120" height="30" as="geometry" />
        </mxCell>
        <mxCell id="SyIyCM8Laf7hYzxyw3Sf-26" value="" style="shape=image;verticalLabelPosition=bottom;labelBackgroundColor=none;verticalAlign=top;aspect=fixed;imageAspect=0;image=data:image/svg+xml,PHN2ZyB4bWxucz0iaHR0cDovL3d3dy53My5vcmcvMjAwMC9zdmciIGlkPSJpY29uIiB2aWV3Qm94PSIwIDAgMzIgMzIiIGhlaWdodD0iODAwcHgiIHdpZHRoPSI4MDBweCIgZmlsbD0iIzAwMDAwMCI+JiN4YTsgIDxkZWZzPiYjeGE7ICAgIDxzdHlsZT4mI3hhOyAgICAgIC5jbHMtMSB7JiN4YTsgICAgICAgIGZpbGw6IG5vbmU7JiN4YTsgICAgICB9JiN4YTsgICAgPC9zdHlsZT4mI3hhOyAgPC9kZWZzPiYjeGE7ICA8cGF0aCB0cmFuc2Zvcm09InRyYW5zbGF0ZSgwIDApIiBkPSJNMTcsMTguMTg0MVYxMy44MTU5YTMuMDAwNywzLjAwMDcsMCwxLDAtMiwwdjQuMzY4N2EzLDMsMCwxLDAsMiwwWk0xNiwxMGExLDEsMCwxLDEtMSwxQTEuMDAwOSwxLjAwMDksMCwwLDEsMTYsMTBabTAsMTJhMSwxLDAsMSwxLDEtMUExLjAwMDksMS4wMDA5LDAsMCwxLDE2LDIyWiIvPiYjeGE7ICA8cGF0aCB0cmFuc2Zvcm09InRyYW5zbGF0ZSgwIDApIiBkPSJNMzAuNDE0MSwxNy40MTQxYTEuOTk5NSwxLjk5OTUsMCwwLDAsMC0yLjgyODJMMjQuNjI3Miw4Ljc5OTNsMi45MDA2LTIuODYyOGEyLjAwMTgsMi4wMDE4LDAsMSwwLTEuNDQxNi0xLjM4NzJMMjMuMjEyOSw3LjM4NDgsMTcuNDE0MSwxLjU4NTlhMS45OTk1LDEuOTk5NSwwLDAsMC0yLjgyODIsMEw4Ljc5OTMsNy4zNzI2LDUuOTM2OCw0LjQ3MTdBMi4wMDIsMi4wMDIsMCwxLDAsNC41NSw1LjkxMzZsMi44MzUsMi44NzM1TDEuNTg1OSwxNC41ODU5YTEuOTk5NSwxLjk5OTUsMCwwLDAsMCwyLjgyODJsNS43OTg5LDUuNzk4OEw0LjU1LDI2LjA4NjRhMS45OTc3LDEuOTk3NywwLDEsMCwxLjM4NywxLjQ0MTlsMi44NjI1LTIuOTAwOSw1Ljc4NjYsNS43ODY3YTEuOTk5NSwxLjk5OTUsMCwwLDAsMi44MjgyLDBsNS43OTg4LTUuNzk4OSwyLjg3MzMsMi44MzU1YTEuOTk4LDEuOTk4LDAsMSwwLDEuNDQxNi0xLjM4NzJsLTIuOTAwNi0yLjg2MjhaTTE2LDI5LDMsMTYsMTYsMywyOSwxNloiLz4mI3hhOyAgPHJlY3QgaGVpZ2h0PSIzMiIgd2lkdGg9IjMyIiBjbGFzcz0iY2xzLTEiIGRhdGEtbmFtZT0iJmx0O1RyYW5zcGFyZW50IFJlY3RhbmdsZSZndDsiIGlkPSJfVHJhbnNwYXJlbnRfUmVjdGFuZ2xlXyIvPiYjeGE7PC9zdmc+;sketch=1;curveFitting=1;jiggle=2;" vertex="1" parent="SyIyCM8Laf7hYzxyw3Sf-14">
          <mxGeometry x="220" y="286" width="50" height="50" as="geometry" />
        </mxCell>
        <mxCell id="SyIyCM8Laf7hYzxyw3Sf-27" value="&lt;div style=&quot;text-align: center;&quot;&gt;&lt;span style=&quot;background-color: initial; font-size: 13px;&quot;&gt;API Gateway&lt;/span&gt;&lt;/div&gt;" style="text;whiteSpace=wrap;html=1;labelBackgroundColor=none;sketch=1;curveFitting=1;jiggle=2;" vertex="1" parent="SyIyCM8Laf7hYzxyw3Sf-14">
          <mxGeometry x="202.5" y="256" width="85" height="30" as="geometry" />
        </mxCell>
        <mxCell id="SyIyCM8Laf7hYzxyw3Sf-30" value="" style="endArrow=classic;startArrow=classic;html=1;rounded=0;exitX=1;exitY=0.5;exitDx=0;exitDy=0;labelBackgroundColor=none;fontColor=default;sketch=1;curveFitting=1;jiggle=2;" edge="1" parent="SyIyCM8Laf7hYzxyw3Sf-14" source="SyIyCM8Laf7hYzxyw3Sf-26">
          <mxGeometry width="50" height="50" relative="1" as="geometry">
            <mxPoint x="280" y="316" as="sourcePoint" />
            <mxPoint x="320" y="311" as="targetPoint" />
          </mxGeometry>
        </mxCell>
        <mxCell id="SyIyCM8Laf7hYzxyw3Sf-23" value="" style="group;labelBackgroundColor=none;sketch=1;curveFitting=1;jiggle=2;" vertex="1" connectable="0" parent="SyIyCM8Laf7hYzxyw3Sf-14">
          <mxGeometry x="-9.999999999999964" y="256" width="175" height="118.37999999999994" as="geometry" />
        </mxCell>
        <mxCell id="SyIyCM8Laf7hYzxyw3Sf-20" value="&lt;div style=&quot;text-align: center; font-size: 13px;&quot;&gt;&lt;span style=&quot;background-color: initial; font-size: 13px;&quot;&gt;&lt;b&gt;Post processing microservice&lt;/b&gt;&lt;/span&gt;&lt;/div&gt;" style="text;whiteSpace=wrap;html=1;fontSize=13;labelBackgroundColor=none;sketch=1;curveFitting=1;jiggle=2;" vertex="1" parent="SyIyCM8Laf7hYzxyw3Sf-23">
          <mxGeometry x="-10" y="91.32999999999993" width="175" height="20" as="geometry" />
        </mxCell>
        <mxCell id="SyIyCM8Laf7hYzxyw3Sf-45" value="" style="shape=image;verticalLabelPosition=bottom;labelBackgroundColor=none;verticalAlign=top;aspect=fixed;imageAspect=0;image=data:image/webp,UklGRqQQAABXRUJQVlA4TJgQAAAvycF/EC8QEWTStsEqKTOynQuyV1C2tjdOpCUO7M20dwWyD9DZA9XZk+n+76W7KpY+y1L/44novyzaVurW2kkH12pyLfGJQDy/RV6Hrz/nZVl+nveFXYe/LStHt7cKH/OyflxKk/BaokfvDMK4UA5n0Yd22hRrXOR1IR9daQjCwjgaUxJxjsoMtAsLvRVf+ZmH5WQEhoV7lDbQhY3GCsonZlDzoh9fYd1NJgSWjQ2DLPsSj3HYNAuaQTipP5IEobOmc+7PdV1/UoK2hM/fmsHJlIsDo6C8LLn4Ea0MnObekLseI8PMyY6ImVUVghkRgVlIRisiWib7ghU99Dta23mkVDwltx4EIxJO7BZtsiEhvxoM63MDE65sABkzAVt+EetMGEw6fovYm3CvEjAD1HsSCygfrQW3GgHNWTABgI7JW4Bp9UrE9KgyABtI1gyYxVb0mmQL3B8Dtn+3YqP2jRCXTbZgY8EgJGVFX1Zh18TAGzz7sWse+7BA4PteLx92SSRaQHM2WSBbCnxxrjdBFOr5ks7WhuW0hR0xxgTCag+1uEFvhHr4uIqevWzqjFgXrbg6jVYs43dmrXD7hUcmM7T6JpbO8NMOVbAxpu7FUhJzhihnXhhGKr3y2v2Ek6q52Fig+U4wob4ZYyk2UEwW7rdPc0xSwgI6GgN03y201RhAKI20RzHRIMUZYH4LM9SwL/GmsNDcrzfLlDqu928CAVHrTDcrQxxVmOiqYrSrb45ZEXGvMe+rprDFRw7DQ44xJ/1jzUn7GOVJzkJfcv5Fszi2zZ1cA/nWBK2p/6/Erq7rnXRkz62P2/zNw9ReB8jkVnitywyceiBqsfxgcYuoD3LWAsK49aIIK0sF4SlC8wtcxN6VQiFeZN7AlxEaLSCGWy+6eF0mMljgucC1Cg6q4cpZi4SvRDvFEFiryg69rteogfTcarNQDPmovx37XSlKRQD51cR2x6yzskcPV4A5Ka0xeISrMulEPNof+ENpT8UDWslsWnTW15rB3GoxCr96+a/H3WRU2un0BFbh9Uo7SQ9oZeyH0k7SB7Ra/QhCr7TtQLcWVjkYcNwih7u6/P32xq/QSxD9juPHF25NhCA1vCcrw3S6Xd2vcIt6MaM2hFmzIaWPT1oZ9YdvQRk00/ttidxiMPLNmjBcFbvpwBIMPSlN2Eiv75RM6RXTADI1E2oCo8ipAman2sbHFZ4rjhm16qEDl1tTlFstt0kLWs2AHrxnTmHmmz1inJRKOLCbqDmWcGQzb9BAVZ3veIbPrRgcrdYpdeHE59Y6YgUKMMvQ6coekjFALRhVujCAuQVxd/9QDxuEi7cAGBNHcqbSiNkhctYiZjfrHbRK3XOBKBLr2YS4GNdopt4ViCIByeao0ShkWB0zQIrEKhqIhYUeYxAwt7YDAoNyOEGyNiCy+ZYDX38/brd7XUpfK19n6Ho2pYIuqupdPmggeEhBELWqMyJ603emGCk2xvkgo0CQteAB51ZGSQbagkc2STK60UTCNpsb5TMI8cSl2WwGIfkMJwNx1Tyb4WQ+E4OWuNSazcQAPsWThkXyFM+vT/EizuxFT9YfwtCCueXgYhdxyEbsgvCBPghBKxgnwLiuXJd09oCO9ZIlEr1MMsJOtHh4WQ5qYMaK4qPLE5BXkqsRWI/gL09AFpriasUqIMwLdqEJsWRIGB3JQkozG+ySIWAZdaQMdEUh5RwDvmQ9Rx4GZKh7ZJfhz19WgqJAft5AbvVIhYxIZULUU4dCmQQvxCxqjGSKr1rTptDum761i8lQ1/skpkQVT7UGqCTFuTmZiUcUaNaJDeg/RCtJFRzFsTmFqdG0wn8QiOW7wXyA3CLW936/+kGcdB4ekyAwquEaKxgnWd2yIU9MLvvfmXwtvOMA6FVKLGKPucG4UIRxa8Mpej9Tedpu6WNT/2IizgAH+Q9h3HIscwAAqL+ezLkbOfNncq6bxErSxL54SIKG/OtpJDCeXmS4ghCOJME27ZM5kYsxidxgjcqIUCVJAZc20xWkGJ/WTLR5DdVarvlkSFvQ2yRPBvOAHc35AN2Fwoiohm3iMjAnQIlpj5ovnQ3kJOXaJUxIn5g/EXX/Ss81r7Ltf1VA2DliWlQIWNuOgVSLV+SnJ+9YCJwMoIo4xVoRAC0LLGkQre4IR4xPI7Vn5c7dRj6N+7sHVP1IvT4loEI6jiHmDMXzKbjBPMaH5VsKTQ8MeUc594Q/nZH3MwmlZEOiWZA2PtuJdxpJ2ytHEAdUJLs0qYQ7dQjwIcQV02686BkflzxIIAxCn/BJ6IgpbiMZS0LwCzqtiz2CuEU/AS6d/ESElwP2UIfCOD9BPvx8dkTRiJOfkldQGxC3GOcIyWUgI5OIb6yInkC3aatzTvZC6DMnbOKYiQqPL7gDvI8pIjCkthkZYUuCo3Frhrsy/PhcscBmCHWzBplz9Qq39lDXS3tWdfIz4Ub54MBhxhduyTJ6oQxCcklyzt05htgbaeM4QigUetWT1OGkhWRT2EAAEgULyVHll5WmkSlbQJR2RDgKpDoReVQrIo5qRaRRvYgwaiBpCsXRn+v9blffZsS8RzM8uJL4/ap0B0C1/jo20b7pTT3vKoI4alY6dRG4H+jptNwaQmr9ipNmmOAlIqicxCeYkT41jggpysOocMSbwakUz2Orb+984rWR+kbMSeRgnp5ZvWISycGe2iZsOQLNJKRSNuWJP3JRNuGYqrx7ZRMC1D/Qyi5agTyaSNeGaHVlwi5oVnOs5Xe7a8JpzKDfhbdZgowoqHfhKGSNWrup7FOKRHNU7lazlDXqB7GpvN2/HD/ve00GkNSmWYiY+KBcfC+mJDrdwo2Yp9SoIUtK3P28F8VIAKCS06hsVYMD/gLFgq0kdTVAy6kZugTTQ478VzE0kjpBpwOSD3sHzbFFysMVQ5CkXfnQHBWyMGoOh/wJfw+i/NOA/ycNRvbPf81h5MTgj3+Kl9VkvcoYosQumkGUAE0x+KxEoZVmC01ALJphlLQ8odlK01vQQhMEBtzqrZvJ2Chx8VcjtdsgcxlfIRWUq0SFDJXUwj7uP+9fjzmpao0OYfmaTqOing4GGepu+ikWv1MqLvItWlXR7xengnrY7XalgcrEuqqFpwsbqeBvpKmGkUY3RppPGWkIZ6NJo5HGqUaaGZtiMD4xDMaNNP030YlDZ6Q7Dkscq/y1cZEDdXakuUMnMW6rNspRhAOy3ZoDMl6MDd7yFIfPxv+xIY67nWZUFNGMyiJ6UWFELyqNaEXFEa2ogcTPi4XkIfPVFla/9iHkhRcBubyl5HHMS9WEMO8RihNlAeSQ00yup/zqJY9gENVAfNT3+73eM2arFLwXoQftJzs2t1Cd0NpM+kwU7c05gSCOYrxYLtzW5AElADf2K878tOSOpYFzi8q6hfeWs3Gh4ZENyE3EhN07e5hJEkxaP0xIkheWC4RbrA//Fz7pLVFmWA7x34w8/cyXRl8Zai+zUJT0Z+gAsvG+ZC8T0WtW4AjWx2xuRDg9g1vwYW9DeFYuk4iGg74EcQtbnat4LaLUtEkktqxH2JWAh+oYE1FGxfIT9/XUmUwM1gsIhFtoH4ZNtDxuiixIUzDHOhdAE3SE9z3uFV2bzYI4tmzniOAWulXu440JhjQvAWIXJncOAEuRxIOIDtRiumIURlP8DJdYxofp+xrO9i3iOfxA9TwzHqfEwlpHI4S8wc6uJJUNJ0SmXKadvFREEi8CxJP4Wu4AGkKkwAbR7cBVX0K8CEA3VTJCimibAl3aJ9MUfNLATKzOxCrQyFkdcCuZloMQKwLgjc4MAJqojzhB52ewKf9I5v6N9y2JNGR5SQr0nPCP+ydzNOoAeicO0h5fSnolqOjSBCYff3GLFKSG+/rrq95n5l25pCkgqOh56zD6dHRuUYMTuQr4kfPh/3oHQ4RAlPuvnP5vpS7RLvacak49D4gVp6ZIAj9D9E+fnAaYXCZKSq/Xl/wW5oJYV2tKFOKMw1hpvJgNMGlyW/H7jJBkTfajrosCBiLpQKuTPG5RIkYe64ZEqsxQULjSO77gnTnuo7KS2ZZ5MX/XEROR4coPl0JloGQ2/r8zwq0DQ3xrurIgRgv0xK1KLprSAQb70pDyhHKrigmlOsBgXwsUV4AMiLOj+C0JDw3AZt4Gwa0pXgtYiXtFMLONAUKsXizY7XuWasBjt++5FPCNmIpDNhsxDQDbgVYwNkJQITYCGwCsi7BfDbQIbqXcUfxWjcAbvc3dB6LNnkRgFoyO/ktz3FH8RJ30y956cj6bbWdP+8t8NtsOwXsVaSuv1C2abyFYfxaiEWgGqAZttn0mxRi02fYnSX5j0Y7iJwLNCfCvhW1/P6Ovc/pTBnx9v5/r78dXY2mtdhQvzmhClR3Fa+R2YEi5o/gcocmO4mfl/uSPHr6jeGpD69X7401KxHQeMbeP5EwNRIoEImcRKQ1ib+4qeVLYQiRiYFWSUg9TWDC3opJTnf/IoYXP/T7G6sqQP1epjRWxgVniovlSyk70hMjXY+EGZ5VcnwH2Qe+jEtfAlcC2SrhcZLOD/beCRZndc6efTitvPB1X/lGusA+0s3JVPPVy1VcIrB9j5g1xtQCVUibh1oMl8RkVc7n4BnJrQ5JSHmPKZdEYTSI42mlPGrdmej6vurmYXljcIrXhI1Uz1N/iskvl3Eacv3HrReVWS/KFVte3WTv/bg8Ytyq+BYRKMQkU9om2j4o6CJ3QSvotzrRDuyB9FZ0QVNF3Jp5bWFuNRmlHiyd646Gn0/cW3kiPqNQKJ24iDwOVWuHEFflh6OrYfkYX+xZDFY6u4k0kIl7h6AY9OnNyNtS0q78dqcaU6bn1lNg38xxNZNFHH8FFri8Vg5/RVTuwpj1aQAa3WjIOhQpIYP9XgfN5KZRD8YKXiCvxIxXSzwO4zJ0LBVHcQDWbYcDe7wvlQP1zeDoH2STauhNBBYBz1wh/g2R9n7/YmP9WScsNiZXpPr9w655gDCcbgo//dcZz3UGLQSDpg/Rnm/AxE3ysGYQrSepcWvShnfb8RwaegaHlYQomiftIVVYHxtnynX1fTVy9JCvuKE6fRWn9l6N2ELNTGxPpsmwsi7dlTjti9M3t6Jtt66MHocrYSmvhb/QPg4LmhPv77dOc4ETdLsLNloGzpytchcmSYMsYHfuonpIhMQ3PXbPqMSxt3WvspmbEVDzOn6zonTuu9b7ieEd7Jx7RfObDbbdbIxJO7MpuxDCEW0Ki/u31vpLfoLUmjLUAbr+8CWgBVX1SdkCJcM8GGG5aMGLuIb79DOieG0Rr4eyCNwGI3teCUciEmMHNtqCC8F/tJSZERR/NxfbvVmwMQAWBYf3zZAu2FgxCIM7pIWNmI2c/ds1j23VYIJEo7ZJIPADlY0wqW1LU3f36IowJaAAZs0FyX7JjTjaswWz4+bJhNa3hhhdnxLqo4+o0lkYonTRWrHDD3xI+mqFAxHNRH+xQXRw5mvx+skN/6AF08qq8Bir9fJmigzpT3ZmFyRZt4oHoCf7TGhX/FrZhI7tMbmzQ6AM76XdW2qNYaKuxscTYj++bV3cdf1RqAw2oShP8qUBSm0AQ1AQy4+KVH1PC7mLZcKsqLHRV0RjjBcgyHzkkAQRxnwHGpfn1sebkfGyJpMQa5UvOPE9yhHdMdvtCj0OsJ/if59z+VQA=;sketch=1;curveFitting=1;jiggle=2;" vertex="1" parent="SyIyCM8Laf7hYzxyw3Sf-23">
          <mxGeometry x="45.34" y="19.41" width="64.33" height="71.92" as="geometry" />
        </mxCell>
        <mxCell id="SyIyCM8Laf7hYzxyw3Sf-31" value="" style="endArrow=classic;startArrow=classic;html=1;rounded=0;labelBackgroundColor=none;fontColor=default;sketch=1;curveFitting=1;jiggle=2;" edge="1" parent="SyIyCM8Laf7hYzxyw3Sf-14">
          <mxGeometry width="50" height="50" relative="1" as="geometry">
            <mxPoint x="100" y="311" as="sourcePoint" />
            <mxPoint x="216" y="311" as="targetPoint" />
          </mxGeometry>
        </mxCell>
        <mxCell id="SyIyCM8Laf7hYzxyw3Sf-18" value="" style="endArrow=classic;startArrow=classic;html=1;rounded=0;exitX=0.5;exitY=0;exitDx=0;exitDy=0;labelBackgroundColor=none;fontColor=default;sketch=1;curveFitting=1;jiggle=2;" edge="1" parent="1" source="SyIyCM8Laf7hYzxyw3Sf-45">
          <mxGeometry width="50" height="50" relative="1" as="geometry">
            <mxPoint x="467.8302727272726" y="564.67" as="sourcePoint" />
            <mxPoint x="469" y="436" as="targetPoint" />
          </mxGeometry>
        </mxCell>
      </root>
    </mxGraphModel>
  </diagram>
</mxfile>
